<mxfile host="app.diagrams.net" modified="2021-08-31T15:26:53.409Z" agent="5.0 (Windows NT 10.0; WOW64) AppleWebKit/537.36 (KHTML, like Gecko) Chrome/91.0.4472.114 Safari/537.36" etag="zxf3IhKfHpo3Ib_TLAYj" version="15.0.3" type="github">
  <diagram id="V7NijbZ8-neQCBAYilDO" name="Page-1">
    <mxGraphModel dx="767" dy="408" grid="1" gridSize="10" guides="1" tooltips="1" connect="1" arrows="1" fold="1" page="1" pageScale="1" pageWidth="660" pageHeight="160" math="0" shadow="0">
      <root>
        <mxCell id="0" />
        <mxCell id="1" parent="0" />
        <mxCell id="B6Ykx06Y0KXSMNwooNur-25" value="" style="endArrow=none;html=1;exitX=0;exitY=0.25;exitDx=0;exitDy=0;entryX=1;entryY=0.25;entryDx=0;entryDy=0;" edge="1" parent="1" source="B6Ykx06Y0KXSMNwooNur-21" target="B6Ykx06Y0KXSMNwooNur-21">
          <mxGeometry width="50" height="50" relative="1" as="geometry">
            <mxPoint x="69.75" y="220" as="sourcePoint" />
            <mxPoint x="119.75" y="170" as="targetPoint" />
          </mxGeometry>
        </mxCell>
        <mxCell id="B6Ykx06Y0KXSMNwooNur-1" value="" style="rounded=0;whiteSpace=wrap;html=1;shadow=0;glass=0;sketch=0;strokeWidth=1;gradientColor=#FFFFFF;fillColor=none;" vertex="1" parent="1">
          <mxGeometry width="652" height="90" as="geometry" />
        </mxCell>
        <mxCell id="B6Ykx06Y0KXSMNwooNur-2" value="&lt;b&gt;Translate&lt;/b&gt;: &quot;It&#39;s the New Year (c1), and the creditor looted all food in my family (c2). Other families are happily celebrating the New Year (c3), &lt;font color=&quot;#ff0000&quot;&gt;but my family doesn&#39;t even have money to buy meat (c4)&lt;/font&gt;. &lt;font color=&quot;#00cc00&quot;&gt;My mother and I are crying extremely (c5)&lt;/font&gt;&quot;, said Chen Huaijun (c6).&lt;p style=&quot;line-height: 140%&quot;&gt;&lt;/p&gt;" style="text;html=1;fillColor=none;align=left;verticalAlign=middle;whiteSpace=wrap;rounded=0;strokeWidth=0;" vertex="1" parent="1">
          <mxGeometry x="7.07" y="52" width="639" height="35" as="geometry" />
        </mxCell>
        <mxCell id="B6Ykx06Y0KXSMNwooNur-3" value="Ground-truth" style="text;html=1;strokeColor=none;fillColor=none;align=center;verticalAlign=middle;whiteSpace=wrap;rounded=0;shadow=0;glass=0;sketch=0;" vertex="1" parent="1">
          <mxGeometry x="564.07" y="87" width="82" height="20" as="geometry" />
        </mxCell>
        <mxCell id="B6Ykx06Y0KXSMNwooNur-4" value="&lt;font style=&quot;font-size: 12px&quot;&gt;The first turn&lt;/font&gt;" style="text;html=1;strokeColor=none;fillColor=none;align=center;verticalAlign=middle;whiteSpace=wrap;rounded=0;shadow=0;glass=0;sketch=0;" vertex="1" parent="1">
          <mxGeometry x="4.32" y="87" width="72.25" height="20" as="geometry" />
        </mxCell>
        <mxCell id="B6Ykx06Y0KXSMNwooNur-5" value="The second turn" style="text;html=1;strokeColor=none;fillColor=none;align=center;verticalAlign=middle;whiteSpace=wrap;rounded=0;shadow=0;glass=0;sketch=0;" vertex="1" parent="1">
          <mxGeometry x="107.94" y="87" width="99" height="20" as="geometry" />
        </mxCell>
        <mxCell id="B6Ykx06Y0KXSMNwooNur-6" value="Rethink" style="text;html=1;strokeColor=none;fillColor=none;align=center;verticalAlign=middle;whiteSpace=wrap;rounded=0;shadow=0;glass=0;sketch=0;" vertex="1" parent="1">
          <mxGeometry x="269.94" y="87" width="80" height="20" as="geometry" />
        </mxCell>
        <mxCell id="B6Ykx06Y0KXSMNwooNur-7" value="Valid E-C pairs" style="text;html=1;strokeColor=none;fillColor=none;align=center;verticalAlign=middle;whiteSpace=wrap;rounded=0;shadow=0;glass=0;sketch=0;" vertex="1" parent="1">
          <mxGeometry x="462.94" y="87" width="92" height="20" as="geometry" />
        </mxCell>
        <mxCell id="B6Ykx06Y0KXSMNwooNur-8" value="c3, c5" style="text;html=1;strokeColor=none;fillColor=none;align=center;verticalAlign=middle;whiteSpace=wrap;rounded=0;shadow=0;glass=0;sketch=0;" vertex="1" parent="1">
          <mxGeometry x="4.32" y="114" width="70" height="20" as="geometry" />
        </mxCell>
        <mxCell id="B6Ykx06Y0KXSMNwooNur-9" value="&lt;p&gt;(c3, c4), p&lt;sub&gt;&lt;font style=&quot;font-size: 11px&quot;&gt;(3,4)&lt;/font&gt;&lt;/sub&gt; = 0.5135&amp;nbsp; (c5, c4), p&lt;sub&gt;(5,4)&lt;/sub&gt; = 0.6313&amp;nbsp;&lt;br&gt;&lt;/p&gt;" style="text;html=1;strokeColor=none;fillColor=none;align=center;verticalAlign=middle;whiteSpace=wrap;rounded=0;shadow=0;glass=0;sketch=0;" vertex="1" parent="1">
          <mxGeometry x="84.94" y="107" width="145" height="34" as="geometry" />
        </mxCell>
        <mxCell id="B6Ykx06Y0KXSMNwooNur-11" value="(c5, c4)" style="text;html=1;strokeColor=none;fillColor=none;align=center;verticalAlign=middle;whiteSpace=wrap;rounded=0;shadow=0;glass=0;sketch=0;" vertex="1" parent="1">
          <mxGeometry x="460.69" y="114" width="94.25" height="20" as="geometry" />
        </mxCell>
        <mxCell id="B6Ykx06Y0KXSMNwooNur-12" value="Threshold" style="text;html=1;strokeColor=none;fillColor=none;align=center;verticalAlign=middle;whiteSpace=wrap;rounded=0;shadow=0;glass=0;sketch=0;" vertex="1" parent="1">
          <mxGeometry x="395.94" y="87" width="54" height="20" as="geometry" />
        </mxCell>
        <mxCell id="B6Ykx06Y0KXSMNwooNur-13" value="0.5" style="text;html=1;strokeColor=none;fillColor=none;align=center;verticalAlign=middle;whiteSpace=wrap;rounded=0;shadow=0;glass=0;sketch=0;" vertex="1" parent="1">
          <mxGeometry x="402.94" y="114" width="40" height="20" as="geometry" />
        </mxCell>
        <mxCell id="B6Ykx06Y0KXSMNwooNur-14" value="&lt;span style=&quot;font-size: 11px&quot;&gt;“过年了 (c1)，债主把家里粮食都搬走了 (c2)，别家都在欢欢喜喜过年 (c3)，&lt;font color=&quot;#ff0000&quot;&gt;而俺家连割肉的钱都没有 (c4)&lt;/font&gt;，&lt;font color=&quot;#00cc00&quot;&gt;我和母亲抱头痛哭 (c5)&lt;/font&gt;”，陈怀军说 (c6)。&lt;/span&gt;" style="text;html=1;strokeColor=none;fillColor=none;align=left;verticalAlign=middle;whiteSpace=wrap;rounded=0;" vertex="1" parent="1">
          <mxGeometry x="4.32" y="10" width="641" height="25" as="geometry" />
        </mxCell>
        <mxCell id="B6Ykx06Y0KXSMNwooNur-16" value="(c5, c4)" style="text;html=1;strokeColor=none;fillColor=none;align=center;verticalAlign=middle;whiteSpace=wrap;rounded=0;shadow=0;glass=0;sketch=0;" vertex="1" parent="1">
          <mxGeometry x="557.95" y="114" width="94.25" height="20" as="geometry" />
        </mxCell>
        <mxCell id="B6Ykx06Y0KXSMNwooNur-18" value="" style="endArrow=none;html=1;entryX=0.123;entryY=0.016;entryDx=0;entryDy=0;entryPerimeter=0;endSize=7;startSize=7;" edge="1" parent="1">
          <mxGeometry width="50" height="50" relative="1" as="geometry">
            <mxPoint x="233.75" y="141" as="sourcePoint" />
            <mxPoint x="233.75" y="90" as="targetPoint" />
          </mxGeometry>
        </mxCell>
        <mxCell id="B6Ykx06Y0KXSMNwooNur-19" value="" style="endArrow=none;html=1;entryX=0.123;entryY=0.016;entryDx=0;entryDy=0;entryPerimeter=0;endSize=7;startSize=7;" edge="1" parent="1">
          <mxGeometry width="50" height="50" relative="1" as="geometry">
            <mxPoint x="388.94" y="141" as="sourcePoint" />
            <mxPoint x="389.24600000000004" y="90" as="targetPoint" />
          </mxGeometry>
        </mxCell>
        <mxCell id="B6Ykx06Y0KXSMNwooNur-20" value="" style="endArrow=none;html=1;entryX=0.123;entryY=0.016;entryDx=0;entryDy=0;entryPerimeter=0;endSize=7;startSize=7;" edge="1" parent="1">
          <mxGeometry width="50" height="50" relative="1" as="geometry">
            <mxPoint x="558.94" y="141" as="sourcePoint" />
            <mxPoint x="558.4960000000001" y="90" as="targetPoint" />
          </mxGeometry>
        </mxCell>
        <mxCell id="B6Ykx06Y0KXSMNwooNur-21" value="" style="rounded=0;whiteSpace=wrap;html=1;shadow=0;glass=0;sketch=0;strokeWidth=1;fillColor=none;gradientColor=#FFFFFF;" vertex="1" parent="1">
          <mxGeometry x="0.5" y="90" width="651" height="50" as="geometry" />
        </mxCell>
        <mxCell id="B6Ykx06Y0KXSMNwooNur-22" value="" style="endArrow=none;html=1;startSize=7;endSize=7;" edge="1" parent="1">
          <mxGeometry width="50" height="50" relative="1" as="geometry">
            <mxPoint x="461.94" y="141" as="sourcePoint" />
            <mxPoint x="461.94" y="90" as="targetPoint" />
          </mxGeometry>
        </mxCell>
        <mxCell id="B6Ykx06Y0KXSMNwooNur-23" value="" style="endArrow=none;html=1;entryX=0.123;entryY=0.005;entryDx=0;entryDy=0;entryPerimeter=0;exitX=0.123;exitY=1.005;exitDx=0;exitDy=0;exitPerimeter=0;" edge="1" parent="1" source="B6Ykx06Y0KXSMNwooNur-21" target="B6Ykx06Y0KXSMNwooNur-21">
          <mxGeometry width="50" height="50" relative="1" as="geometry">
            <mxPoint x="49.94" y="242" as="sourcePoint" />
            <mxPoint x="99.94" y="192" as="targetPoint" />
          </mxGeometry>
        </mxCell>
        <mxCell id="B6Ykx06Y0KXSMNwooNur-24" value="" style="endArrow=none;html=1;exitX=0.002;exitY=0.441;exitDx=0;exitDy=0;exitPerimeter=0;entryX=1;entryY=0.43;entryDx=0;entryDy=0;entryPerimeter=0;" edge="1" parent="1" source="B6Ykx06Y0KXSMNwooNur-1" target="B6Ykx06Y0KXSMNwooNur-1">
          <mxGeometry width="50" height="50" relative="1" as="geometry">
            <mxPoint x="89.75" y="310" as="sourcePoint" />
            <mxPoint x="139.75" y="260" as="targetPoint" />
          </mxGeometry>
        </mxCell>
        <mxCell id="B6Ykx06Y0KXSMNwooNur-26" value="&lt;p&gt;(c3, c4), p&lt;sub&gt;&lt;font style=&quot;font-size: 11px&quot;&gt;(3,4)&lt;/font&gt;&lt;/sub&gt; = 0.3595&amp;nbsp; (c5, c4), p&lt;sub&gt;(5,4)&lt;/sub&gt; = 0.6313&amp;nbsp;&lt;br&gt;&lt;/p&gt;" style="text;html=1;strokeColor=none;fillColor=none;align=center;verticalAlign=middle;whiteSpace=wrap;rounded=0;shadow=0;glass=0;sketch=0;" vertex="1" parent="1">
          <mxGeometry x="237.44" y="107" width="145" height="34" as="geometry" />
        </mxCell>
      </root>
    </mxGraphModel>
  </diagram>
</mxfile>
